<?xml version="1.0" encoding="utf-8"?>
<!-- Generator: Adobe Illustrator 23.0.1, SVG Export Plug-In . SVG Version: 6.00 Build 0)  -->
<svg version="1.1" id="Layer_1" xmlns="http://www.w3.org/2000/svg" xmlns:xlink="http://www.w3.org/1999/xlink" x="0px" y="0px"
	 viewBox="0 0 424 424" style="enable-background:new 0 0 424 424;" xml:space="preserve">
<style type="text/css">
	.st0{fill:#77A1D3;}
	.st1{fill:#7F7F7F;}
</style>
<path class="st0" d="M328.8,160.9c3.5-15.6,3.5-40.5-4.9-52.1c-3.7-5.1-8.8-7.9-15.4-7.9c-0.2,0-0.2,0-0.2,0
	c-18,1-32.2,10.1-47.5,19.3c-14-3.7-28.2-5.6-42.4-5.6c-14.4,0-28.9,2.1-41.7,5.6c-16-9.7-30.1-18.4-48.6-19.3
	c-5.8,0-10.9,2.8-14.7,7.9c-8.4,11.6-8.4,36.5-4.9,52.1c-19.8,26.1-25.1,64-13.3,95.4c11.2,30,36.3,51,71.7,60.5
	c-2.9,5.1-5.2,11.6-6.1,20.4c-7.1,2.5-13.3,3.3-19.1,1.6c-6.1-1.8-10.8-5.9-14.9-12.8c-9.2-15.5-25-28.2-42.9-26.6l1.2,14.1
	c0.1,0,0.2,0.1,0.3,0.1c0.1,0,0.2,0,0.3,0c8.7,1,15.9,4.7,21.5,11.5c3.1,3.7,5.5,7.8,8.2,11.8c1.8,2,3.7,4,5.6,6
	c1.3,1.3,2.6,2.6,3.9,3.8c1.9,1.8,2.1,1.9,3.3,2.7c1.5,1,3,2,4.5,2.8c0.7,0.4,1.4,0.7,2.1,1.1c0.2,0,1.6,0.6,1.8,0.6
	c2.8,0.8,4.5,1.2,6.6,1.2c3.7-0.2,7.4-0.2,11-1.1c3.1-0.8,6.4,1.5,6.3,4.8c0,1-0.1,2-0.1,3c0,0,0,0,0.1,0v24.3
	c3.5,0.4,7,0.9,10.6,1.4c0.3,0,0.5,0.1,0.8,0.1c-0.3-12.9,2-25.7,2.1-38.6c0-1.4,0.3-2.7,0.7-3.8c0.1-3.4,0.5-6.7,1.1-10.1
	c0.7-3.4,1.6-6.6,2.8-9.8c0.8-6.5,2.6-12.9,5.6-18.7c-10.3-2.9-20.3-6.9-29.8-11.8c-11.5-6-22.4-14-30.6-24.2
	c-7.4-7.2-12.9-16.1-16.1-26.3c-2.4-5-3.1-11.2-2.1-16.8c-0.7-10.8-0.9-21.8,4.2-31.2c2.2-11.2,7.1-21.4,15.4-29.6
	c-3.7-9.8-6.4-19.8-6.4-30.5c-0.4-3.1-0.5-6.3-0.6-9.5c-1.6-4.9,1.4-9.5,5.8-11.5c0.8-1,2-1.6,3.7-1.5c18,0.7,34.6,12.5,45.9,25.8
	c0,0,0.1,0.1,0.1,0.1c27.1-10.4,56.7-11.6,84.4-2.6c0.8-0.4,1.6-0.8,2.4-1.2c4.7-4.7,10.4-8.3,15.9-12.2c7.4-5.2,16-10.1,25.3-9.9
	c0.6,0,1.1,0.1,1.6,0.3c5-0.4,9.3,3.5,10.3,8.5c1.7,3.8,2.2,8.6,2.4,13.3c0.6,4.5,0.7,9.1-0.1,13.7c-1.2,6.9-4.1,13.2-5.9,19.9
	c0.9,1.2,1.7,2.5,2.6,3.8c9,8,14,20.1,16.6,31.6c1.9,8.5,2.9,17.5,1.4,26c-0.2,7.8-2.5,15.9-5.6,23c-5.2,12.1-12.8,23.9-22.8,32.7
	c-1.4,1.8-3.2,3.4-5.2,4.7c-5.3,4.5-11.5,8-17.9,10.6c-8.9,3.7-18.4,6.5-28.1,7.8c0.8,2.5,1.4,5.1,2.2,7.6c1.3,4.5,2.6,9.1,3.2,13.8
	c1.2,4.1,1.8,8.4,2.1,12.6c2.5,15.7,2.4,31.6,2.4,47.5c5.3,0.1,10.6,0.2,15.9-0.1v-45.4c0-13.3-2.8-22.1-6.5-28.6
	c35.4-9.5,60.5-30.5,71.7-60.5C354,224.7,348.6,187,328.8,160.9z"/>
<path class="st1" d="M377,399.1H47c-25.9,0-47-21.1-47-47V72c0-25.9,21.1-47,47-47h330c25.9,0,47,21.1,47,47v280.1
	C424,378,402.9,399.1,377,399.1z M47,39c-18.2,0-33,14.8-33,33v280.1c0,18.2,14.8,33,33,33h330c18.2,0,33-14.8,33-33V72
	c0-18.2-14.8-33-33-33H47z"/>
</svg>
