<?xml version="1.0" encoding="utf-8"?>
<!-- Generator: Adobe Illustrator 23.0.1, SVG Export Plug-In . SVG Version: 6.00 Build 0)  -->
<svg version="1.1" id="Layer_1" xmlns="http://www.w3.org/2000/svg" xmlns:xlink="http://www.w3.org/1999/xlink" x="0px" y="0px"
	 viewBox="0 0 424 424" style="enable-background:new 0 0 424 424;" xml:space="preserve">
<style type="text/css">
	.st0{fill:#77A1D3;}
	.st1{fill:#7F7F7F;}
</style>
<g>
	<path class="st0" d="M140.3,398.2H70.2V201.5h70.1V398.2z M83.1,385.3h44.4v-171H83.1V385.3z M105.3,189.2
		c-21.8,0-39.6-17.7-39.6-39.6s17.8-39.5,39.6-39.5c21.8,0,39.6,17.7,39.6,39.5C144.8,171.5,127.1,189.2,105.3,189.2z M105.3,123
		c-14.7,0-26.7,12-26.7,26.7c0,14.7,12,26.7,26.7,26.7c14.7,0,26.7-12,26.7-26.7C132,135,120,123,105.3,123z M354.4,398.2h-70v-95.8
		c0-28.7-3.5-42.3-23.3-42.3c-20,0-27.9,11.4-27.9,40.8v97.4h-69.9V201.5H231v13.9c10.8-10.1,27.1-18.5,48.4-18.5
		c66.1,0,75,47.5,75,94L354.4,398.2L354.4,398.2z M297.3,385.3h44.3v-94.4c0-50.1-10.4-81.1-62.1-81.1c-25.5,0-42,14.1-48.4,26.3
		l-1.8,3.4h-11.1v-25.1h-41.9v171h44.2v-84.5c0-14.7,0-53.6,40.7-53.6c36.2,0,36.2,35.9,36.2,55.2L297.3,385.3L297.3,385.3
		L297.3,385.3z"/>
</g>
<path class="st1" d="M377,399.1H47c-25.9,0-47-21.1-47-47V72c0-25.9,21.1-47,47-47h330c25.9,0,47,21.1,47,47v280.1
	C424,378,402.9,399.1,377,399.1z M47,39c-18.2,0-33,14.8-33,33v280.1c0,18.2,14.8,33,33,33h330c18.2,0,33-14.8,33-33V72
	c0-18.2-14.8-33-33-33H47z"/>
</svg>
