<?xml version="1.0" encoding="utf-8"?>
<!-- Generator: Adobe Illustrator 23.0.1, SVG Export Plug-In . SVG Version: 6.00 Build 0)  -->
<svg version="1.1" id="Layer_1" xmlns="http://www.w3.org/2000/svg" xmlns:xlink="http://www.w3.org/1999/xlink" x="0px" y="0px"
	 viewBox="0 0 424 424" style="enable-background:new 0 0 424 424;" xml:space="preserve">
<style type="text/css">
	.st0{fill:#7F7F7F;}
	.st1{fill:#77A1D3;}
</style>
<path class="st0" d="M377,399.1H47c-25.9,0-47-21.1-47-47V72c0-25.9,21.1-47,47-47h330c25.9,0,47,21.1,47,47v280.1
	C424,378,402.9,399.1,377,399.1z M47,39c-18.2,0-33,14.8-33,33v280.1c0,18.2,14.8,33,33,33h330c18.2,0,33-14.8,33-33V72
	c0-18.2-14.8-33-33-33H47z"/>
<path class="st0" d="M417,137.1H7c-3.9,0-7-3.1-7-7c0-3.9,3.1-7,7-7h410c3.9,0,7,3.1,7,7C424,134,420.9,137.1,417,137.1z"/>
<path class="st1" d="M119.6,103.6c-12.2,0-22.2-9.9-22.2-22.2c0-12.2,9.9-22.2,22.2-22.2c12.2,0,22.2,9.9,22.2,22.2
	C141.8,93.7,131.8,103.6,119.6,103.6z M119.6,73.3c-4.5,0-8.2,3.7-8.2,8.2s3.7,8.2,8.2,8.2s8.2-3.7,8.2-8.2S124.1,73.3,119.6,73.3z"
	/>
<path class="st1" d="M51.5,103.4c-12.2,0-22.2-9.9-22.2-22.2S39.2,59,51.5,59s22.2,10,22.2,22.2S63.8,103.4,51.5,103.4z M51.5,73.1
	c-4.5,0-8.2,3.7-8.2,8.2s3.7,8.2,8.2,8.2s8.2-3.7,8.2-8.2C59.7,76.7,56,73.1,51.5,73.1z"/>
<path class="st1" d="M187.7,103.8c-12.2,0-22.1-9.9-22.1-22.2c0-12.2,9.9-22.1,22.1-22.1c12.2,0,22.2,9.9,22.2,22.1
	C209.8,93.9,199.9,103.8,187.7,103.8z M187.7,73.5c-4.5,0-8.1,3.7-8.1,8.2s3.7,8.2,8.1,8.2c4.5,0,8.2-3.7,8.2-8.2
	S192.2,73.5,187.7,73.5z"/>
<g>
	<path class="st1" d="M187.3,338.9c-1.6,0-3.3-0.6-4.5-1.9l-43.4-43.4c-1.2-1.2-1.9-2.8-1.9-4.5s0.7-3.3,1.9-4.5L261,162.9
		c1.2-1.2,2.8-1.9,4.5-1.9s3.3,0.7,4.5,1.9l43.4,43.4c2.5,2.5,2.5,6.6,0,9.1L191.9,337C190.6,338.3,189,338.9,187.3,338.9z M153,289
		l34.4,34.4L300,210.8l-34.4-34.4L153,289z"/>
	<path class="st1" d="M122.2,360.6c-1.7,0-3.3-0.7-4.5-1.9c-1.7-1.7-2.3-4.3-1.5-6.6l21.7-65.2c0.7-2.1,2.4-3.7,4.6-4.2
		c2.2-0.5,4.4,0.1,6,1.7l43.4,43.4c1.6,1.6,2.2,3.8,1.7,6s-2.1,3.9-4.2,4.6l-65.2,21.7C123.5,360.5,122.8,360.6,122.2,360.6z
		 M146.7,300.9l-14.4,43.2l43.1-14.4L146.7,300.9z"/>
	<path class="st1" d="M285.1,241.2c-1.6,0-3.3-0.6-4.5-1.9l-43.4-43.4c-2.5-2.5-2.5-6.6,0-9.1s6.6-2.5,9.1,0l43.4,43.4
		c2.5,2.5,2.5,6.6,0,9.1C288.3,240.5,286.7,241.2,285.1,241.2z"/>
</g>
</svg>
