<?xml version="1.0" encoding="utf-8"?>
<!-- Generator: Adobe Illustrator 23.0.1, SVG Export Plug-In . SVG Version: 6.00 Build 0)  -->
<svg version="1.1" id="Layer_1" xmlns="http://www.w3.org/2000/svg" xmlns:xlink="http://www.w3.org/1999/xlink" x="0px" y="0px"
	 viewBox="0 0 424 424" style="enable-background:new 0 0 424 424;" xml:space="preserve">
<style type="text/css">
	.st0{fill:#77A1D3;}
	.st1{fill:#7F7F7F;}
</style>
<path class="st0" d="M212,252.8c-23.2,0-42-18.8-42-42s18.8-42,42-42s42,18.8,42,42S235.2,252.8,212,252.8z M212,182.8
	c-15.4,0-28,12.6-28,28s12.6,28,28,28s28-12.6,28-28S227.4,182.8,212,182.8z"/>
<path class="st0" d="M267,335.3H157c-3.9,0-7-3.1-7-7c0-34.2,27.8-62,62-62s62,27.8,62,62C274,332.2,270.9,335.3,267,335.3z
	 M164.5,321.3h95c-3.4-23.2-23.4-41-47.5-41S167.9,298.1,164.5,321.3z"/>
<path class="st1" d="M377,399.1H47c-25.9,0-47-21.1-47-47V72c0-25.9,21.1-47,47-47h330c25.9,0,47,21.1,47,47v280.1
	C424,378,402.9,399.1,377,399.1z M47,39c-18.2,0-33,14.8-33,33v280.1c0,18.2,14.8,33,33,33h330c18.2,0,33-14.8,33-33V72
	c0-18.2-14.8-33-33-33H47z"/>
<path class="st1" d="M417,137.1H7c-3.9,0-7-3.1-7-7c0-3.9,3.1-7,7-7h410c3.9,0,7,3.1,7,7C424,134,420.9,137.1,417,137.1z"/>
<path class="st0" d="M119.6,103.6c-12.2,0-22.2-9.9-22.2-22.2c0-12.2,9.9-22.2,22.2-22.2c12.2,0,22.2,9.9,22.2,22.2
	C141.8,93.7,131.8,103.6,119.6,103.6z M119.6,73.3c-4.5,0-8.2,3.7-8.2,8.2s3.7,8.2,8.2,8.2s8.2-3.7,8.2-8.2S124.1,73.3,119.6,73.3z"
	/>
<path class="st0" d="M51.5,103.4c-12.2,0-22.2-9.9-22.2-22.2S39.2,59,51.5,59s22.2,10,22.2,22.2S63.8,103.4,51.5,103.4z M51.5,73.1
	c-4.5,0-8.2,3.7-8.2,8.2s3.7,8.2,8.2,8.2s8.2-3.7,8.2-8.2C59.7,76.7,56,73.1,51.5,73.1z"/>
<path class="st0" d="M187.7,103.8c-12.2,0-22.1-9.9-22.1-22.2c0-12.2,9.9-22.1,22.1-22.1c12.2,0,22.2,9.9,22.2,22.1
	C209.8,93.9,199.9,103.8,187.7,103.8z M187.7,73.5c-4.5,0-8.1,3.7-8.1,8.2s3.7,8.2,8.1,8.2c4.5,0,8.2-3.7,8.2-8.2
	S192.2,73.5,187.7,73.5z"/>
</svg>
